<svg width="24.000000" height="24.000000" viewBox="0 0 24 24" fill="none" xmlns="http://www.w3.org/2000/svg" xmlns:xlink="http://www.w3.org/1999/xlink">
	<desc>
			Created with Pixso.
	</desc>
	<defs>
		<clipPath id="clip2_3247">
			<rect id="Alert" width="24.000000" height="24.000000" fill="white" fill-opacity="0"/>
		</clipPath>
	</defs>
	<g clip-path="url(#clip2_3247)">
		<path id="Shape" d="M12 1.99C16.04 1.99 19.35 5.19 19.49 9.24L19.5 9.49L19.5 13.59L20.88 16.74C20.94 16.9 20.98 17.07 20.98 17.25C20.98 17.94 20.42 18.5 19.73 18.5L15 18.5C15 20.15 13.65 21.5 12 21.5C10.4 21.5 9.09 20.25 9 18.67L8.99 18.49L4.27 18.5C4.1 18.5 3.93 18.46 3.77 18.39C3.14 18.12 2.85 17.38 3.12 16.75L4.5 13.59L4.5 9.49C4.5 5.34 7.85 1.99 12 1.99ZM13.49 18.49L10.5 18.5C10.5 19.32 11.17 20 12 20C12.77 20 13.42 19.4 13.49 18.64L13.49 18.49ZM12 3.49C8.67 3.49 6 6.17 6 9.49L6 13.9L4.65 17L19.35 17L18 13.9L18 9.5L17.99 9.28C17.88 6.05 15.24 3.49 12 3.49Z" fill="#242424" fill-opacity="1.000000" fill-rule="nonzero"/>
	</g>
</svg>
