<svg width="20.000000" height="20.000000" viewBox="0 0 20 20" fill="none" xmlns="http://www.w3.org/2000/svg" xmlns:xlink="http://www.w3.org/1999/xlink">
	<desc>
		Created with Pixso.
	</desc>
	<defs>
		<clipPath id="clip3_11751">
			<rect id="icon" width="20.000000" height="20.000000" fill="white" fill-opacity="0" />
		</clipPath>
	</defs>
	<g clip-path="url(#clip3_11751)">
		<path id="Vector" d="M2.5 2.5L17.5 17.5M8.82031 8.82248C8.50586 9.13499 8.33008 9.55894 8.33008 10.0011C8.33008 10.4432 8.50586 10.8672 8.81836 11.18C9.13086 11.4927 9.55469 11.6685 9.99805 11.6687C10.4395 11.6688 10.8633 11.4933 11.1758 11.1808M7.80273 4.47083C8.51562 4.26643 9.25586 4.16403 10 4.16667C13.332 4.16667 16.1094 6.11083 18.332 10C17.6836 11.1342 16.9902 12.1033 16.2461 12.9067M14.4629 14.4575C13.1035 15.3742 11.6172 15.8333 10 15.8333C6.66602 15.8333 3.88867 13.8892 1.66602 10C2.80664 8.00417 4.09375 6.52083 5.52539 5.54917" stroke="#242424" stroke-opacity="1.000000" stroke-width="1.500000" stroke-linejoin="round" />
	</g>
</svg>
