<svg width="14.000000" height="14.000000" viewBox="0 0 14 14" fill="none" xmlns="http://www.w3.org/2000/svg" xmlns:xlink="http://www.w3.org/1999/xlink">
	<desc>
			Created with Pixso.
	</desc>
	<defs>
		<clipPath id="clip18_12082">
			<rect id="Old/Icon/X-Small" width="8.000000" height="8.000000" transform="translate(3.000000 3.000000)" fill="white" fill-opacity="0"/>
		</clipPath>
	</defs>
	<rect id="Icon in shape" rx="7.000000" width="14.000000" height="14.000000" fill="#FC5A5A" fill-opacity="1.000000"/>
	<g clip-path="url(#clip18_12082)">
		<path id="Vector" d="M8.9 5.09C8.84 5.03 8.76 5 8.68 5C8.59 5 8.51 5.03 8.45 5.09L7 6.55L5.54 5.09C5.48 5.03 5.4 5 5.31 5C5.23 5 5.15 5.03 5.09 5.09C5.03 5.15 5 5.23 5 5.31C5 5.4 5.03 5.48 5.09 5.54L6.55 7L5.09 8.45C5.03 8.51 5 8.59 5 8.68C5 8.76 5.03 8.84 5.09 8.9C5.15 8.96 5.23 9 5.31 9C5.4 9 5.48 8.96 5.54 8.9L7 7.44L8.45 8.9C8.51 8.96 8.59 9 8.68 9C8.76 9 8.84 8.96 8.9 8.9C8.96 8.84 9 8.76 9 8.68C9 8.59 8.96 8.51 8.9 8.45L7.44 7L8.9 5.54C8.96 5.48 9 5.4 9 5.31C9 5.23 8.96 5.15 8.9 5.09Z" fill="#FFFFFF" fill-opacity="1.000000" fill-rule="nonzero"/>
		<path id="Vector" d="M8.68 5C8.59 5 8.51 5.03 8.45 5.09L7 6.55L5.54 5.09C5.48 5.03 5.4 5 5.31 5C5.23 5 5.15 5.03 5.09 5.09C5.03 5.15 5 5.23 5 5.31C5 5.4 5.03 5.48 5.09 5.54L6.55 7L5.09 8.45C5.03 8.51 5 8.59 5 8.68C5 8.76 5.03 8.84 5.09 8.9C5.15 8.96 5.23 9 5.31 9C5.4 9 5.48 8.96 5.54 8.9L7 7.44L8.45 8.9C8.51 8.96 8.59 9 8.68 9C8.76 9 8.84 8.96 8.9 8.9C8.96 8.84 9 8.76 9 8.68C9 8.59 8.96 8.51 8.9 8.45L7.44 7L8.9 5.54C8.96 5.48 9 5.4 9 5.31C9 5.23 8.96 5.15 8.9 5.09C8.84 5.03 8.76 5 8.68 5Z" stroke="#FFFFFF" stroke-opacity="1.000000" stroke-width="1.000000"/>
	</g>
</svg>
