<svg width="26.000000" height="26.000000" viewBox="0 0 26 26" fill="none" xmlns="http://www.w3.org/2000/svg" xmlns:xlink="http://www.w3.org/1999/xlink">
	<desc>
			Created with Pixso.
	</desc>
	<defs>
		<clipPath id="clip1008_108731">
			<rect id="map-pin" width="26.000000" height="26.000000" fill="white" fill-opacity="0"/>
		</clipPath>
	</defs>
	<g clip-path="url(#clip1008_108731)">
		<path id="Vector" d="M12.99 15.16C11.2 15.16 9.74 13.71 9.74 11.91C9.74 10.12 11.2 8.66 12.99 8.66C14.79 8.66 16.24 10.12 16.24 11.91C16.24 13.71 14.79 15.16 12.99 15.16ZM14.53 22.64C14.12 23.04 13.57 23.27 13 23.27C12.42 23.27 11.87 23.04 11.46 22.64L6.87 18.04C5.65 16.83 4.83 15.28 4.49 13.6C4.16 11.92 4.33 10.18 4.99 8.6C5.64 7.01 6.75 5.66 8.18 4.71C9.6 3.75 11.28 3.25 12.99 3.25C14.71 3.25 16.38 3.75 17.81 4.71C19.23 5.66 20.35 7.01 21 8.6C21.66 10.18 21.83 11.92 21.5 13.6C21.16 15.28 20.34 16.83 19.12 18.04L14.53 22.64Z" stroke="#606873" stroke-opacity="1.000000" stroke-width="1.500000" stroke-linejoin="round"/>
	</g>
</svg>
