<svg width="32.000000" height="32.000000" viewBox="0 0 32 32" fill="none" xmlns="http://www.w3.org/2000/svg" xmlns:xlink="http://www.w3.org/1999/xlink">
	<desc>
			Created with Pixso.
	</desc>
	<defs/>
	<path id="XMLID_22_" d="M28 16C28 9.37 22.62 4 16 4C9.37 4 4 9.37 4 16C4 21.99 8.38 26.95 14.12 27.85L14.12 19.47L11.08 19.47L11.08 16L14.12 16L14.12 13.35C14.12 10.35 15.91 8.68 18.65 8.68C19.97 8.68 21.34 8.92 21.34 8.92L21.34 11.87L19.83 11.87C18.34 11.87 17.88 12.8 17.88 13.75L17.88 16L21.2 16L20.67 19.47L17.88 19.47L17.88 27.85C23.61 26.95 28 21.99 28 16Z" fill="#1877F2" fill-opacity="1.000000" fill-rule="nonzero"/>
	<path id="XMLID_18_" d="M20.66 19.47L21.2 16L17.87 16L17.87 13.75C17.87 12.8 18.34 11.87 19.82 11.87L21.33 11.87L21.33 8.92C21.33 8.92 19.96 8.68 18.64 8.68C15.9 8.68 14.11 10.35 14.11 13.35L14.11 16L11.07 16L11.07 19.47L14.11 19.47L14.11 27.85C14.73 27.95 15.35 28 15.99 28C16.63 28 17.25 27.94 17.86 27.85L17.86 19.47L20.66 19.47Z" fill="#FFFFFF" fill-opacity="1.000000" fill-rule="nonzero"/>
</svg>
