<svg width="32.000000" height="32.000000" viewBox="0 0 32 32" fill="none" xmlns="http://www.w3.org/2000/svg" xmlns:xlink="http://www.w3.org/1999/xlink">
	<desc>
			Created with Pixso.
	</desc>
	<defs/>
	<path id="Vector" d="M28 16.26C28 15.28 27.91 14.56 27.74 13.81L16.24 13.81L16.24 18.26L22.99 18.26C22.85 19.36 22.12 21.02 20.48 22.14L20.46 22.29L24.1 25.04L24.35 25.06C26.66 22.98 28 19.9 28 16.26Z" fill="#4285F4" fill-opacity="1.000000" fill-rule="nonzero"/>
	<path id="Vector" d="M16.24 27.96C19.55 27.96 22.32 26.9 24.35 25.06L20.48 22.14C19.45 22.84 18.06 23.33 16.24 23.33C13 23.33 10.25 21.25 9.27 18.36L9.13 18.37L5.35 21.23L5.3 21.37C7.31 25.27 11.45 27.96 16.24 27.96Z" fill="#34A853" fill-opacity="1.000000" fill-rule="nonzero"/>
	<path id="Vector" d="M9.27 18.36C9.02 17.62 8.87 16.82 8.87 16C8.87 15.17 9.02 14.37 9.26 13.63L9.25 13.47L5.43 10.57L5.3 10.62C4.47 12.25 4 14.07 4 16C4 17.92 4.47 19.74 5.3 21.37L9.27 18.36Z" fill="#FBBC05" fill-opacity="1.000000" fill-rule="nonzero"/>
	<path id="Vector" d="M16.24 8.66C18.54 8.66 20.09 9.63 20.97 10.44L24.43 7.14C22.31 5.21 19.55 4.03 16.24 4.03C11.45 4.03 7.31 6.71 5.3 10.62L9.26 13.63C10.25 10.74 13 8.66 16.24 8.66Z" fill="#EB4335" fill-opacity="1.000000" fill-rule="nonzero"/>
</svg>
