<svg width="20" height="20" viewBox="0 0 20 20" fill="none" xmlns="http://www.w3.org/2000/svg">
<path d="M12.5007 6.66671H12.509M3.33398 12.5L6.66732 9.16667C7.04737 8.80097 7.47848 8.60844 7.91732 8.60844C8.35616 8.60844 8.78727 8.80097 9.16732 9.16667L13.334 13.3333M11.6673 11.6667L12.5007 10.8333C12.8807 10.4676 13.3118 10.2751 13.7507 10.2751C14.1895 10.2751 14.6206 10.4676 15.0007 10.8333L16.6673 12.5M5.83398 3.33337H14.1673C15.548 3.33337 16.6673 4.45266 16.6673 5.83337V14.1667C16.6673 15.5474 15.548 16.6667 14.1673 16.6667H5.83398C4.45327 16.6667 3.33398 15.5474 3.33398 14.1667V5.83337C3.33398 4.45266 4.45327 3.33337 5.83398 3.33337Z" stroke="#1B85F3" stroke-width="1.5" stroke-linecap="round" stroke-linejoin="round"/>
</svg>
