<svg xmlns="http://www.w3.org/2000/svg" width="16" height="16" viewBox="0 0 4.233 4.233" id="scan-qr-code"><g transform="translate(73.405 -1.965)"><g><g><g><g><g><g><g><g transform="translate(0 .002)"><g transform="translate(.02)"><g transform="translate(.267)"><g><g transform="translate(.044 .377)"><g><g transform="translate(.263)"><g><path fill="none" stroke="#000" stroke-linecap="round" stroke-linejoin="round" stroke-width=".265" d="M-73.604163 3.0076532V2.3772009c0-.219869.177007-.396875.396875-.396875h.703832M-72.817997 2.5063918h.458886c.14658 0 .264584.1180041.264584.2645833v.4588867c0 .1465792-.118004.2645833-.264584.2645833h-.458886c-.146579 0-.264584-.1180041-.264584-.2645833V2.7709751c0-.1465792.118005-.2645833.264584-.2645833zM-72.637129 3.0004184h.09715M-70.163221 3.0076532V2.3772009c0-.219869-.177007-.396875-.396875-.396875h-.703832" paint-order="markers fill stroke"></path><path fill="none" stroke="#000" stroke-linecap="round" stroke-linejoin="round" stroke-width=".265" d="m 70.94939,2.5063918 h 0.458887 c 0.146579,0 0.264583,0.1180041 0.264583,0.2645833 v 0.4588867 c 0,0.1465792 -0.118004,0.2645833 -0.264583,0.2645833 H 70.94939 c -0.146579,0 -0.264583,-0.1180041 -0.264583,-0.2645833 V 2.7709751 c 0,-0.1465792 0.118004,-0.2645833 0.264583,-0.2645833 z" paint-order="markers fill stroke" transform="scale(-1 1)"></path><path fill="none" stroke="#000" stroke-linecap="round" stroke-linejoin="round" stroke-width=".265" d="M-71.130258 3.0004184h-.09715M-73.604163 4.3925819v.6304523c0 .219869.177007.396875.396875.396875h.703832" paint-order="markers fill stroke"></path><path fill="none" stroke="#000" stroke-linecap="round" stroke-linejoin="round" stroke-width=".265" d="m -72.817997,-4.8938432 h 0.458886 c 0.14658,0 0.264584,0.1180042 0.264584,0.2645833 v 0.4588868 c 0,0.1465791 -0.118004,0.2645833 -0.264584,0.2645833 h -0.458886 c -0.146579,0 -0.264584,-0.1180042 -0.264584,-0.2645833 v -0.4588868 c 0,-0.1465791 0.118005,-0.2645833 0.264584,-0.2645833 z" paint-order="markers fill stroke" transform="scale(1 -1)"></path><path fill="none" stroke="#000" stroke-linecap="round" stroke-linejoin="round" stroke-width=".265" d="M-72.637129 4.3998165h.09715M-70.163221 4.3925819v.6304523c0 .219869-.177007.396875-.396875.396875h-.703832" paint-order="markers fill stroke"></path><path fill="none" stroke="#000" stroke-linecap="round" stroke-linejoin="round" stroke-width=".265" d="m 70.684807,-4.1703731 v -0.4588868 c 0,-0.1465791 0.118004,-0.2645833 0.264583,-0.2645833 h 0.458887 m 0.264583,0.3576009 v 0.3658692 c 0,0.1465791 -0.118004,0.2645833 -0.264583,0.2645833 h -0.330731" paint-order="markers fill stroke" transform="scale(-1)"></path><path fill="none" stroke="#000" stroke-linecap="round" stroke-linejoin="round" stroke-width=".265" d="m -71.130258,4.3998165 h -0.09715" paint-order="markers fill stroke"></path></g></g></g></g></g></g></g></g></g></g></g></g></g></g></g></g></svg>