<svg width="28" height="28" viewBox="0 0 21 21" fill="none" xmlns="http://www.w3.org/2000/svg">
	<path d="M17.3982 9.42558C17.2256 8.64798 16.8281 7.9831 16.3533 7.65093C15.7564 7.23327 15.0202 7.05738 14.2938 7.00021C13.5674 6.94303 12.8377 6.99585 12.1091 6.99204C10.5899 6.98387 8.77056 7.15867 7.38363 6.3974C6.91097 6.1382 6.49276 5.81475 6.24064 5.33446C5.94986 4.78067 5.48482 4.27261 4.87439 4.13321C4.65004 4.08203 4.41807 4.08257 4.18827 4.08366C3.92853 4.08475 3.66769 4.08638 3.41067 4.1245C3.25657 4.14737 3.10246 4.1844 2.96633 4.25955C2.74416 4.38261 2.58733 4.5977 2.46862 4.8226C2.32051 5.10249 1.93171 5.06546 1.62295 5.08398C1.61696 5.08289 1.61152 5.0818 1.60553 5.08071C1.50697 5.06492 1.39316 5.07036 1.2946 5.08289C1.24069 5.08997 1.18623 5.10358 1.14104 5.13462C1.0147 5.22011 1 5.39818 1 5.53649C1 5.6748 1.0196 5.85287 1.14049 5.94271C1.11544 6.3827 1.13777 6.8118 1.30113 7.23273C1.36593 7.40044 1.45197 7.57197 1.60607 7.66455C1.75201 7.75276 1.93225 7.75385 2.10215 7.7691C2.43758 7.7985 2.78391 7.90196 3.01534 8.14646C3.21627 8.35938 3.30612 8.65016 3.40795 8.92461C3.76353 9.88408 4.21223 11.13 4.98275 11.803C5.07696 11.8853 5.1728 11.9642 5.27136 12.0405C6.37786 14.7659 5.00944 16.3167 5.00944 16.3167C4.34782 16.6031 4.59069 17.1542 4.59069 17.1542H6.17802C6.62617 16.552 6.98284 15.7346 7.26002 14.9091C7.36566 15.7433 7.30412 16.3167 7.30412 16.3167C6.64251 16.6031 6.88537 17.1542 6.88537 17.1542H8.4727C9.2759 16.0744 9.21164 14.3117 9.02541 13.0517C9.5351 12.9792 9.98107 12.8453 10.3192 12.719C10.8099 14.9407 12.8753 14.9597 12.8753 14.9597C13.8261 15.1634 14.0243 16.3167 14.0243 16.3167C13.3627 16.6031 13.5298 17.1542 13.5298 17.1542H15.3508C15.4951 16.2013 15.3148 15.4596 15.1003 14.9581C15.1253 14.9597 15.1389 14.9597 15.1389 14.9597C16.0897 15.1634 16.2879 16.3167 16.2879 16.3167C15.6263 16.6031 15.7935 17.1542 15.7935 17.1542H17.6144C17.9008 15.2581 16.9049 14.2001 16.9049 14.2001C16.032 13.251 16.7726 12.3481 16.7726 12.3481C16.7916 12.3242 16.8107 12.3007 16.8286 12.2768C17.212 13.6022 18.1933 14.1135 18.1933 14.1135V13.7879C18.7906 14.6749 20.1667 14.6025 20.1667 14.6025C18.9393 13.251 17.848 10.6061 17.3982 9.4234V9.42558ZM5.74892 5.57134C5.63566 5.90024 5.50932 6.21934 5.33289 6.52156C5.20329 6.74373 5.04538 7.00348 4.81231 7.13961C4.54277 7.29753 4.34074 7.09332 4.22748 6.85917C4.1605 6.7214 4.10986 6.57111 4.06902 6.41919C4.10006 6.51339 4.13545 6.60542 4.17793 6.692C4.29119 6.92561 4.49321 7.12981 4.76276 6.97244C4.99528 6.8363 5.15374 6.57656 5.28334 6.35439C5.45923 6.05217 5.5861 5.73307 5.69937 5.40417C5.74184 5.28056 5.75927 5.16675 5.74729 5.0622C5.82134 5.20922 5.8159 5.37857 5.74946 5.57134H5.74892Z" fill="#1B85F3" />
</svg>
