<svg width="20" height="20" viewBox="0 0 21 21" fill="none" xmlns="http://www.w3.org/2000/svg">
	<path d="M15.5061 13.047C15.0924 13.0096 15.2588 12.1834 15.2588 12.1834C15.2967 11.8569 15.2939 11.5454 15.2197 11.2719C15.4474 11.5381 15.4307 12.0383 15.4307 12.0383C15.4452 12.8639 15.8455 12.9962 15.8455 12.9962C15.5736 12.7321 15.6166 12.0221 15.6166 12.0221C15.6266 11.1625 15.247 10.9074 15.007 10.832C14.8557 10.6344 14.6325 10.4781 14.3165 10.3782C13.8482 10.2308 12.2746 10.4306 11.7923 10.4373C10.9555 10.4485 9.96638 10.5272 9.28704 9.92993C9.04757 9.71892 8.82763 9.29022 8.68417 9.00497C8.60993 8.85761 8.56081 8.70912 8.44135 8.5891C8.3258 8.47244 8.17899 8.38982 8.0266 8.33065C7.79103 8.23966 7.52645 8.22348 7.28307 8.29326C7.17421 8.32452 7.06369 8.38089 7.00228 8.47802C6.93418 8.58631 6.87222 8.68791 6.77788 8.7761C6.67685 8.87044 6.29503 8.99939 6.16385 9.03511C6.12924 9.0446 6.0924 9.05465 6.05779 9.06749C6.04049 9.0608 6.02039 9.05856 5.99862 9.06191C5.96457 9.06693 5.92773 9.08089 5.89703 9.0954C5.88028 9.10322 5.86354 9.11327 5.85181 9.12834C5.81944 9.16964 5.8334 9.22937 5.84735 9.27515C5.85572 9.30082 5.86688 9.32985 5.88419 9.35274C5.89368 9.40019 5.91098 9.44707 5.92829 9.48392C6.0991 9.84731 6.86608 9.7178 7.19096 9.7111C7.31321 9.70831 7.43769 9.70608 7.55659 9.73455C7.55436 9.89476 7.5884 10.0483 7.69781 10.1426C7.69502 10.1398 7.69224 10.1376 7.68944 10.1348C7.69447 10.137 7.69949 10.1393 7.70451 10.1415C8.16615 10.3318 8.19909 9.55648 8.34422 9.32092C8.37939 9.26342 8.43856 9.22212 8.44917 9.15123C8.46368 9.05354 8.44079 8.9525 8.39837 8.8643C8.32022 8.70187 8.18569 8.54557 8.03833 8.43951C8.06456 8.45402 8.08912 8.47244 8.11257 8.48863C8.26607 8.59469 8.40786 8.75601 8.4888 8.92459C8.53122 9.01279 8.55467 9.11382 8.5396 9.21151C8.52899 9.2824 8.47038 9.32371 8.43465 9.38121C8.30682 9.58942 8.26607 10.2185 7.94008 10.2314C8.00539 10.5897 7.94287 11.0497 7.98362 11.3115C7.98362 11.3115 7.95069 12.2169 8.81312 12.6869C8.51671 13.4098 8.08186 13.5421 8.08186 13.5421C7.90547 13.6403 7.95962 13.7894 7.95962 13.7894H8.4274C8.75227 13.5019 8.99063 13.2234 9.15753 12.9967C9.0604 13.5589 8.75562 13.5415 8.75562 13.5415C8.57923 13.6398 8.63337 13.7888 8.63337 13.7888H9.10115C9.45171 13.4785 9.62364 13.1787 9.70626 12.9431C10.1355 12.9872 10.6708 12.9577 11.3401 12.8159C11.8135 12.7154 12.3137 12.6495 12.7195 12.6077C13.1353 13.4567 14.0916 13.2552 14.0916 13.2552C14.5415 13.3612 14.5415 13.5415 14.5415 13.5415C14.3651 13.6398 14.4192 13.7888 14.4192 13.7888H14.887C14.9406 13.5549 14.9049 13.3875 14.8446 13.2708C14.9216 13.2647 14.9679 13.2546 14.9679 13.2546C15.4179 13.3607 15.4179 13.541 15.4179 13.541C15.2415 13.6392 15.2956 13.7883 15.2956 13.7883H15.7634C15.8923 13.2289 15.5055 13.0464 15.5055 13.0464L15.5061 13.047Z" fill="#808B9A" />
</svg>
