<svg width="28" height="28" viewBox="0 0 29 29" fill="none" xmlns="http://www.w3.org/2000/svg">
	<path d="M22.0927 14.3867L21.6183 14.4059C21.6183 14.4059 22.3007 13.9178 22.5041 12.7949L22.1848 13.085C22.1848 13.085 22.3398 11.3434 21.4932 10.2543V10.7578C21.4932 10.7578 21.2607 9.97416 20.0564 9.48524L20.5016 10.2014C20.5016 10.2014 19.4861 9.02088 17.6279 9.41693L18.3148 9.58195C18.3148 9.58195 16.8389 9.75081 16.495 10.8008L16.8819 10.5974C16.8819 10.5974 16.5042 11.3519 16.6109 12.0104C16.6109 12.0104 17.0853 11.3619 18.0094 11.454L17.5304 11.7004C17.5304 11.7004 18.8414 11.3381 19.5091 11.9091L19.1753 12.0012C19.1753 12.0012 20.0173 12.1854 19.8139 12.93L19.4608 12.6736C19.4608 12.6736 19.7931 13.2684 19.1937 13.6844C18.0969 12.943 16.6355 12.9775 16.6355 12.9775L13.7472 12.7657C12.9137 12.7051 12.325 12.1724 11.985 11.4409C11.9305 11.3235 11.8813 11.2045 11.8322 11.0848C11.7892 10.9804 11.7462 10.8768 11.7033 10.7724C11.6396 10.6181 11.5874 10.4608 11.5244 10.3065C11.3356 9.84982 11.08 9.38853 10.6894 9.1007C10.5873 8.7154 10.4299 8.25718 10.1866 7.78898C10.1866 7.78898 10.0131 7.45356 9.93946 7.74216C9.88574 7.95093 9.78749 8.26715 9.79056 8.77219C9.39912 8.73075 8.99002 8.79445 8.6546 8.97022C8.35219 9.1291 8.17182 9.3962 7.90702 9.59883C7.75582 9.71397 7.53706 9.73546 7.35746 9.71934C7.23312 9.70859 7.07732 9.68864 6.93379 9.70476C6.91767 9.69401 6.90001 9.68557 6.87929 9.68019C6.82632 9.66484 6.76416 9.66024 6.70966 9.66101C6.67973 9.66101 6.64903 9.66484 6.62216 9.67866C6.54771 9.71703 6.52776 9.81298 6.51855 9.88896C6.51241 9.93962 6.5101 10.0003 6.52699 10.0524C6.47172 10.2436 6.4748 10.48 6.48324 10.6327C6.49552 10.8568 6.5692 11.0856 6.72655 11.2452C6.86624 11.3864 7.05736 11.4632 7.24617 11.5238C7.5033 11.6067 7.7681 11.6674 8.01371 11.7802C8.40746 11.9598 8.66996 12.3036 8.77281 12.7204C8.87719 13.1472 8.82193 14.8726 8.80044 15.307L9.01918 15.0292C9.01918 15.0292 8.95932 15.6363 9.04912 16.0638L9.10899 15.8796C10.1513 19.5009 8.85723 21.3046 8.85723 21.3046C8.2716 21.5648 8.42357 22.0882 8.42357 22.0882H9.42905C10.0362 21.6492 10.3363 20.1533 10.3363 20.1533L10.5205 20.3897L10.3608 19.6943L10.6118 20.1801C10.6633 19.616 10.4384 19.025 10.4384 19.025L10.8214 19.8386C10.8198 19.3397 10.3839 18.2375 10.3839 18.2375L10.6372 18.612C11.1407 20.5639 10.6917 21.3046 10.6917 21.3046C10.1053 21.5648 10.2565 22.0882 10.2565 22.0882H11.1852C11.7931 21.6492 12.0962 20.1533 12.0962 20.1533L12.2797 20.3897L12.1223 19.6943L12.3718 20.1801C12.424 19.616 12.2014 19.025 12.2014 19.025L12.5821 19.8386C12.5821 19.3397 12.1492 18.2375 12.1492 18.2375L12.5821 18.8807C12.5775 18.7034 12.5061 18.4608 12.4171 18.2244C12.8699 18.2935 13.4947 18.315 14.2431 18.1523L13.7158 18.0349L14.6552 17.9389C15.2025 19.9238 17.0354 19.9499 17.0354 19.9499C17.8175 20.0919 17.9948 21.4565 17.9948 21.4565C17.687 21.8004 17.7085 22.132 17.7085 22.132C17.7085 22.132 17.7093 22.1343 17.7116 22.1381L18.7761 22.132C19.2305 21.0935 18.7792 20.2377 18.4499 19.801C18.8552 19.9453 19.1676 19.9499 19.1676 19.9499C19.9497 20.0919 20.127 21.4565 20.127 21.4565C19.8192 21.8004 19.8407 22.132 19.8407 22.132C19.8407 22.132 19.8415 22.1343 19.8438 22.1381L20.9084 22.132C21.5715 20.6161 20.3043 19.4886 20.3043 19.4886C19.7356 19.1332 20.0556 18.7778 20.0556 18.7778C20.4954 18.0157 20.5 17.5191 20.4878 17.3694L20.5883 18.2099C20.979 17.6411 20.7656 16.6111 20.7656 16.6111C21.1563 17.1798 21.0496 17.5352 21.0496 17.5352C21.5815 15.931 20.2583 15.132 20.2583 15.132C20.2268 15.023 20.1899 14.9194 20.1477 14.8212C20.4739 14.8473 21.3321 14.8611 22.0927 14.3906V14.3867Z" fill="#1B85F3" />
</svg>
